<svg width="54" height="36" viewBox="0 0 54 36" fill="none" xmlns="http://www.w3.org/2000/svg">
<path d="M37.1953 17.7031C41.375 17.7031 44.9883 13.9531 44.9883 9.07031C44.9883 4.24609 41.3555 0.671875 37.1953 0.671875C33.0156 0.671875 29.3633 4.32422 29.3828 9.10938C29.3828 13.9531 32.9961 17.7031 37.1953 17.7031ZM14.6953 18.1523C18.3477 18.1523 21.4922 14.8711 21.4922 10.6328C21.4922 6.43359 18.3281 3.32812 14.6953 3.32812C11.082 3.32812 7.87891 6.51172 7.89844 10.6719C7.89844 14.8711 11.0625 18.1523 14.6953 18.1523ZM3.81641 35.7891H18.6406C16.6094 32.8398 19.0898 26.9023 23.3086 23.6602C21.1211 22.2148 18.3281 21.1406 14.6953 21.1406C5.88672 21.1406 0.378906 27.6445 0.378906 33.0547C0.378906 34.8125 1.33594 35.7891 3.81641 35.7891ZM24.9102 35.7891H49.4414C52.5273 35.7891 53.6211 34.9102 53.6211 33.1914C53.6211 28.1523 47.3125 21.1992 37.1758 21.1992C27.0586 21.1992 20.75 28.1523 20.75 33.1914C20.75 34.9102 21.8438 35.7891 24.9102 35.7891Z" fill="#7D77E9"/>
</svg>
