<svg width="18" height="18" viewBox="0 0 18 18" fill="none" xmlns="http://www.w3.org/2000/svg">
<path d="M17.7063 1.70851C18.0968 1.31799 18.0968 0.684821 17.7063 0.294297C17.3158 -0.0962273 16.6826 -0.0962273 16.2921 0.294297L17.7063 1.70851ZM0.987717 15.5986C0.597193 15.9892 0.597193 16.6223 0.987717 17.0129C1.37824 17.4034 2.01141 17.4034 2.40193 17.0129L0.987717 15.5986ZM16.2921 17.0128C16.6826 17.4033 17.3157 17.4034 17.7063 17.0129C18.0968 16.6224 18.0969 15.9892 17.7064 15.5987L16.2921 17.0128ZM2.40271 0.292941C2.01221 -0.0976095 1.37905 -0.0976527 0.988498 0.292845C0.597947 0.683343 0.597904 1.31651 0.988402 1.70706L2.40271 0.292941ZM16.2921 0.294297L0.987717 15.5986L2.40193 17.0129L17.7063 1.70851L16.2921 0.294297ZM2.40193 17.0129L17.7063 1.70851L16.2921 0.294297L0.987717 15.5986L2.40193 17.0129ZM17.7064 15.5987L2.40271 0.292941L0.988402 1.70706L16.2921 17.0128L17.7064 15.5987ZM0.988402 1.70706L16.2921 17.0128L17.7064 15.5987L2.40271 0.292941L0.988402 1.70706Z" fill="#ABB7E0"/>
</svg>
