<svg width="169" height="170" viewBox="0 0 169 170" fill="none" xmlns="http://www.w3.org/2000/svg">
<path d="M165.329 142.706H98.8984C97.0729 142.706 95.5925 144.193 95.5925 146.026C95.5925 149.077 93.1214 151.559 90.0839 151.559H79.0981C76.0606 151.559 73.5894 149.077 73.5894 146.026C73.5894 144.193 72.109 142.706 70.2835 142.706H18.6728V57.3866C18.6728 53.5719 21.7631 50.4681 25.5613 50.4681H66.7908L66.8209 50.7589L59.9519 57.2701C59.9291 57.292 59.906 57.3146 59.8835 57.3368C53.8796 63.3675 50.5731 71.3854 50.5731 79.913V94.7391C50.5731 96.051 51.3424 97.24 52.5361 97.7732C52.9672 97.9658 53.4247 98.0595 53.8786 98.0595C54.6816 98.0595 55.4744 97.7656 56.0939 97.2045L70.5602 84.0952C70.9768 84.8107 71.6508 85.3619 72.4747 85.6063C76.3594 86.7588 80.3831 87.3501 84.4338 87.3641C84.4824 87.3641 84.5313 87.3644 84.5802 87.3644C88.6792 87.3644 92.7511 86.773 96.6845 85.6063C97.5318 85.3546 98.2191 84.7759 98.632 84.0281L113.174 97.2061C113.794 97.7673 114.587 98.0611 115.39 98.0611C115.843 98.0611 116.301 97.9675 116.732 97.7749C117.926 97.242 118.695 96.0527 118.695 94.7408V79.9146C118.695 71.3867 115.389 63.3692 109.385 57.3385L103.032 50.9578L103.093 50.4674H143.707C147.505 50.4674 150.595 53.5713 150.595 57.386V142.706C150.595 144.539 152.076 146.026 153.901 146.026C155.727 146.026 157.207 144.539 157.207 142.706C157.207 140.872 157.207 57.3866 157.207 57.3866C157.207 49.9099 151.151 43.8275 143.707 43.8275H103.858C105.016 28.7204 99.9603 13.7926 89.7702 2.50385L89.189 1.8607C88.1205 0.67668 86.5988 0 85.009 0C84.9951 0 84.9809 0 84.967 0C83.362 0.0119531 81.8334 0.713203 80.7732 1.92346L79.6779 3.17322C69.9123 14.3188 65.0185 29.0577 66.1283 43.8275H25.5616C18.1174 43.8275 12.0613 49.9099 12.0613 57.3866V142.706H3.93969C2.11417 142.706 0.633789 144.193 0.633789 146.026V151.202C0.633789 161.567 9.03012 170 19.3495 170H149.918C160.238 170 168.634 161.568 168.634 151.203V146.026C168.634 144.192 167.154 142.706 165.329 142.706ZM100.405 71.8702L101.984 59.2981L104.709 62.0347C109.464 66.811 112.083 73.1611 112.083 79.9153V87.2737L99.8618 76.1989L100.405 71.8702ZM84.6414 7.56035L85.0199 7.12871C94.413 17.6292 98.7897 31.6675 97.0299 45.6802L96.2699 51.7328L96.2686 51.7401L93.086 77.087L92.7475 79.7841C90.0707 80.4083 87.3334 80.7238 84.5806 80.7238C84.5392 80.7238 84.4979 80.7238 84.4566 80.7234C81.7629 80.7141 79.0835 80.4027 76.4639 79.7961L73.8592 54.5461L73.5663 51.7059L72.8397 44.6648C71.4535 31.2265 75.7551 17.7022 84.6414 7.56035ZM69.4408 76.1653L57.1849 87.2718V79.9133C57.1849 73.1747 59.7919 66.8382 64.526 62.0659L67.6785 59.0773L69.4408 76.1653ZM149.918 163.359H19.3495C12.6752 163.359 7.24526 157.906 7.24526 151.202V149.346H67.4352C68.8775 154.45 73.5597 158.199 79.0974 158.199H90.0832C95.6209 158.199 100.303 154.45 101.745 149.346H162.022V151.203C162.022 157.906 156.593 163.359 149.918 163.359Z" fill="#3E3B7C"/>
</svg>
